# xmcd
# 
# Track frame offsets:
#     182
#     4932
#     15665
#     27962
#     44340
#     57027
#     69432
#     80580
#     91305
#     104882
#     115272
#     126962
#     139330
#     150645
#     162142
#     177560
#     196747
#     209887
#     221275
#     232180
#     242380
# 
# Disc length: 3396
# 
# Revision: 1
# Processed by: cddbd v1.5.2PL0 Copyright (c) Steve Scherf et al.
# Submitted via: fre:ac v1.0.31
# 
DISCID=290d4215
DTITLE=Alain Audras, J-M Delon, Philippe Ochin - Bluegrass 43
DYEAR=1989
DGENRE=Folk
TTITLE0=Train 43
TTITLE1=Roly poly
TTITLE2=Vous oubliez votre cheval
TTITLE3=The drifter
TTITLE4=Marche Turque
TTITLE5=Ain't she sweet
TTITLE6=Why did you wander
TTITLE7=Move it on over
TTITLE8=Valses Venezueliennes
TTITLE9=My aching hart
TTITLE10=Le danseur de charleston
TTITLE11=Frontporch song
TTITLE12=Perles de cristal
TTITLE13=San Antonio Rose
TTITLE14=Columbus stockade blues
TTITLE15=Louise
TTITLE16=Steel guitar rag
TTITLE17=Take the morning train
TTITLE18=Comme un aveugle
TTITLE19=Fire on the lake
TTITLE20=The old, old house
EXTD=
EXTT0=
EXTT1=
EXTT2=
EXTT3=
EXTT4=
EXTT5=
EXTT6=
EXTT7=
EXTT8=
EXTT9=
EXTT10=
EXTT11=
EXTT12=
EXTT13=
EXTT14=
EXTT15=
EXTT16=
EXTT17=
EXTT18=
EXTT19=
EXTT20=
PLAYORDER=
